<svg id="Livello_1" xmlns="http://www.w3.org/2000/svg" xmlns:xlink="http://www.w3.org/1999/xlink" viewBox="0 0 597 119"><style>.st0{clip-path:url(#SVGID_2_);fill:url(#SVGID_3_)}.st1{clip-path:url(#SVGID_5_);fill:url(#SVGID_6_)}.st2{clip-path:url(#SVGID_8_);fill:url(#SVGID_9_)}.st3{clip-path:url(#SVGID_11_);fill:url(#SVGID_12_)}.st4{clip-path:url(#SVGID_14_);fill:url(#SVGID_15_)}.st5{clip-path:url(#SVGID_17_);fill:url(#SVGID_18_)}.st6{clip-path:url(#SVGID_20_);fill:url(#SVGID_21_)}.st7{clip-path:url(#SVGID_23_);fill:url(#SVGID_24_)}</style><defs><path id="SVGID_1_" d="M219.1 38.4c-11.7 8.9-23.7 17.5-36 25.6-2.9 1.9-5.9 4-8.9 5.8-.7.4-4 2.5-4.8 2.3-1.8-.5-.6-2.8-.3-4 2.2-6.5 6-12.8 9.9-18.6 2.8-4.1-3.3-8.1-6.2-4-5 7.2-10.7 16-12.1 24.5-.8 4.7 1.3 8.1 4.9 9.1-16.6 10.1-34.1 18.6-52.3 25.4-4.8 1.8-1.6 8.3 3.1 6.5 39.8-14.7 76.6-38.1 107.5-67.2 2.9-2.7.8-6.4-2.1-6.4-.9 0-1.8.3-2.7 1"/></defs><clipPath id="SVGID_2_"><use xlink:href="#SVGID_1_" overflow="visible"/></clipPath><linearGradient id="SVGID_3_" gradientUnits="userSpaceOnUse" x1="-121.68" y1="357.963" x2="-120.68" y2="357.963" gradientTransform="scale(584.7972 -584.7972) rotate(.742 27603.013 9577.76)"><stop offset="0" stop-color="#ffee25"/><stop offset="0" stop-color="#ffed25"/><stop offset=".013" stop-color="#facc2a"/><stop offset=".025" stop-color="#f5b12f"/><stop offset=".038" stop-color="#f29e32"/><stop offset=".051" stop-color="#f19333"/><stop offset=".065" stop-color="#f08f34"/><stop offset=".141" stop-color="#e86031"/><stop offset=".219" stop-color="#e2312d"/><stop offset=".296" stop-color="#e3315d"/><stop offset=".372" stop-color="#af3660"/><stop offset=".458" stop-color="#6e3863"/><stop offset=".541" stop-color="#533863"/><stop offset=".622" stop-color="#2b3763"/><stop offset=".7" stop-color="#293389"/><stop offset=".781" stop-color="#0058a5"/><stop offset=".855" stop-color="#0072ba"/><stop offset=".931" stop-color="#009ee2"/><stop offset=".998" stop-color="#00977b"/><stop offset="1" stop-color="#00977b"/></linearGradient><path class="st0" d="M107.6 37.4l119.1-1.5 1 76.8-119.1 1.6z"/><defs><path id="SVGID_4_" d="M257.2 51c-1.9 1.4-2 4.8.1 5.8 10.2 5.3 22.7 5.2 34.1 7.6-19.8 4.6-39.5 9.7-59.1 15.4-4.8 1.4-3.8 8.1 1.2 7.2 14.1-2.6 28.1-5.2 42.2-7.8 11.6-2.1 24.6-3 34.8-9.8.8-.5 1.2-1.3 1.4-2.1 9.2-1.9 18.5-3.8 27.8-5.4.5 2.8 2.1 5.3 4.9 7.1 5.8 3.7 13.1 2.1 19.8.2 4.8-1.4 3.7-8.6-1.2-7.2-3.1.9-6.6 2.1-9.8 1.9-2.6-.2-7.1-1.7-6.1-5.2.8-2.8-1-5.3-4.2-4.7-12.4 2.2-24.7 4.6-37 7.3-11.8-5.4-26.2-4.2-38.5-8.4 9.4-5.6 20-8.6 30.6-8.8 0 .1-.1.2-.1.2-2.7 4.2 3.5 8.2 6.2 4 1.2-1.9 2.4-3.8 3.7-5.7 1.6-2.5.4-5.4-2.6-5.7-1.8-.1-3.6-.2-5.4-.2-15.3 0-30.2 5-42.8 14.3"/></defs><clipPath id="SVGID_5_"><use xlink:href="#SVGID_4_" overflow="visible"/></clipPath><linearGradient id="SVGID_6_" gradientUnits="userSpaceOnUse" x1="-121.68" y1="357.963" x2="-120.68" y2="357.963" gradientTransform="scale(584.7972 -584.7972) rotate(.742 27601.541 9577.75)"><stop offset="0" stop-color="#ffee25"/><stop offset="0" stop-color="#ffed25"/><stop offset=".013" stop-color="#facc2a"/><stop offset=".025" stop-color="#f5b12f"/><stop offset=".038" stop-color="#f29e32"/><stop offset=".051" stop-color="#f19333"/><stop offset=".065" stop-color="#f08f34"/><stop offset=".141" stop-color="#e86031"/><stop offset=".219" stop-color="#e2312d"/><stop offset=".296" stop-color="#e3315d"/><stop offset=".372" stop-color="#af3660"/><stop offset=".458" stop-color="#6e3863"/><stop offset=".541" stop-color="#533863"/><stop offset=".622" stop-color="#2b3763"/><stop offset=".7" stop-color="#293389"/><stop offset=".781" stop-color="#0058a5"/><stop offset=".855" stop-color="#0072ba"/><stop offset=".931" stop-color="#009ee2"/><stop offset=".998" stop-color="#00977b"/><stop offset="1" stop-color="#00977b"/></linearGradient><path class="st1" d="M226.8 36.7L369 34.8l.7 53.3-142.2 1.8z"/><g><defs><path id="SVGID_7_" d="M359.2 43.4c-1.3.6-2.1 1.6-2.7 2.8-.4.9-.3 2.1 0 2.9.4.8 1.2 1.5 2.1 1.8 1 .2 2.1.2 3-.3.2-.1.4-.2.6-.4 1.3-.3 2.6-1.2 3-2.5.7-2-.1-4-2.1-4.6-.5-.1-1-.2-1.5-.2-.9 0-1.7.2-2.4.5"/></defs><clipPath id="SVGID_8_"><use xlink:href="#SVGID_7_" overflow="visible"/></clipPath><linearGradient id="SVGID_9_" gradientUnits="userSpaceOnUse" x1="-121.68" y1="357.964" x2="-120.68" y2="357.964" gradientTransform="scale(584.7972 -584.7972) rotate(.742 27599.723 9577.739)"><stop offset="0" stop-color="#ffee25"/><stop offset="0" stop-color="#ffed25"/><stop offset=".013" stop-color="#facc2a"/><stop offset=".025" stop-color="#f5b12f"/><stop offset=".038" stop-color="#f29e32"/><stop offset=".051" stop-color="#f19333"/><stop offset=".065" stop-color="#f08f34"/><stop offset=".141" stop-color="#e86031"/><stop offset=".219" stop-color="#e2312d"/><stop offset=".296" stop-color="#e3315d"/><stop offset=".372" stop-color="#af3660"/><stop offset=".458" stop-color="#6e3863"/><stop offset=".541" stop-color="#533863"/><stop offset=".622" stop-color="#2b3763"/><stop offset=".7" stop-color="#293389"/><stop offset=".781" stop-color="#0058a5"/><stop offset=".855" stop-color="#0072ba"/><stop offset=".931" stop-color="#009ee2"/><stop offset=".998" stop-color="#00977b"/><stop offset="1" stop-color="#00977b"/></linearGradient><path class="st2" d="M355.9 42.9l10-.2.1 8.4-10 .2z"/></g><g><defs><path id="SVGID_10_" d="M371.9 58c3.5 3.5 7.3 6.6 11.4 9.3-1.7.6-3.3 1.1-5 1.7-10.6 1.5-20.8 5.3-30.4 10.3-3.8 2-2.3 8.4 2.1 6.9 9.8-3.3 19.6-6.7 29.5-10 2.6-.3 5.2-.5 7.8-.5 11.2.1 21.6 6.4 33 3 4.8-1.4 3.7-8.7-1.2-7.2-4.3 1.3-8.3.8-12.3-.1 2.6-1.9 5-4.6 7.1-7.6 1.7-2.5-.2-6.8-3.7-5.6-5.8 2-11.6 3.9-17.3 5.9-.5-.3-.9-.5-1.3-.7-5.1-2.9-9.6-6.4-13.7-10.4-.8-.8-1.6-1.1-2.5-1.1-3 0-6 3.5-3.5 6.1"/></defs><clipPath id="SVGID_11_"><use xlink:href="#SVGID_10_" overflow="visible"/></clipPath><linearGradient id="SVGID_12_" gradientUnits="userSpaceOnUse" x1="-121.68" y1="357.963" x2="-120.68" y2="357.963" gradientTransform="scale(584.7972 -584.7972) rotate(.742 27602.656 9577.758)"><stop offset="0" stop-color="#ffee25"/><stop offset="0" stop-color="#ffed25"/><stop offset=".013" stop-color="#facc2a"/><stop offset=".025" stop-color="#f5b12f"/><stop offset=".038" stop-color="#f29e32"/><stop offset=".051" stop-color="#f19333"/><stop offset=".065" stop-color="#f08f34"/><stop offset=".141" stop-color="#e86031"/><stop offset=".219" stop-color="#e2312d"/><stop offset=".296" stop-color="#e3315d"/><stop offset=".372" stop-color="#af3660"/><stop offset=".458" stop-color="#6e3863"/><stop offset=".541" stop-color="#533863"/><stop offset=".622" stop-color="#2b3763"/><stop offset=".7" stop-color="#293389"/><stop offset=".781" stop-color="#0058a5"/><stop offset=".855" stop-color="#0072ba"/><stop offset=".931" stop-color="#009ee2"/><stop offset=".998" stop-color="#00977b"/><stop offset="1" stop-color="#00977b"/></linearGradient><path class="st3" d="M343.6 51.9l81.5-1.1.5 36.9-81.5 1z"/></g><g><defs><path id="SVGID_13_" d="M476.6 2.7c-9.2 11.5-18.3 23.1-27.5 34.6-1.2.1-2.5.3-3.7.4-.8-3.1-4.3-3.8-8.8-2.7-7.2 1.7-15 4.8-22.2 7.4-5 1.8-5 7.7-.6 6.9 7.5-1.3 15-2.4 22.4-3.4-.5 1.2-1.1 2.4-1.2 2.7-3.7 9.1-9.2 18-16.2 26.7-3.7 4.6 2.6 6.8 6.3 2.2l26.6-33.4c19.4-2 38.4-2.9 57-2.7.1 1.4 1 2.4 3.1 2.2 2.9-.3 5.4-1.7 8-3.8 2.8-2.3 2.3-5.7-.4-5.7-19.9-.5-40.5.3-61.5 2.3 8.3-10.5 16.7-21 25-31.4 2.2-2.8.7-4.8-1.6-4.8-1.5 0-3.3.8-4.7 2.5"/></defs><clipPath id="SVGID_14_"><use xlink:href="#SVGID_13_" overflow="visible"/></clipPath><linearGradient id="SVGID_15_" gradientUnits="userSpaceOnUse" x1="-121.68" y1="357.962" x2="-120.68" y2="357.962" gradientTransform="scale(584.7972 -584.7972) rotate(.742 27598.98 9577.734)"><stop offset="0" stop-color="#ffee25"/><stop offset="0" stop-color="#ffed25"/><stop offset=".013" stop-color="#facc2a"/><stop offset=".025" stop-color="#f5b12f"/><stop offset=".038" stop-color="#f29e32"/><stop offset=".051" stop-color="#f19333"/><stop offset=".065" stop-color="#f08f34"/><stop offset=".141" stop-color="#e86031"/><stop offset=".219" stop-color="#e2312d"/><stop offset=".296" stop-color="#e3315d"/><stop offset=".372" stop-color="#af3660"/><stop offset=".458" stop-color="#6e3863"/><stop offset=".541" stop-color="#533863"/><stop offset=".622" stop-color="#2b3763"/><stop offset=".7" stop-color="#293389"/><stop offset=".781" stop-color="#0058a5"/><stop offset=".855" stop-color="#0072ba"/><stop offset=".931" stop-color="#009ee2"/><stop offset=".998" stop-color="#00977b"/><stop offset="1" stop-color="#00977b"/></linearGradient><path class="st4" d="M408.3.2l114.2-1.5 1.1 83.4-114.2 1.5z"/></g><g><defs><path id="SVGID_16_" d="M492 51.5c-8.1 4.2-16.3 8.4-24.4 12.6-2.5 1.3-9.7 6.5-12.3 5.2-2.4-1.2-1.4-6.9-1-8.9.8-4.8-6.9-5-7.7-.2-.7 4.5-.4 10.4 2.4 13.8-31.3 14.4-63.9 26-96.3 37.4-4.7 1.7-3.6 8.9 1.2 7.2 48.3-17 96.9-34.1 141.3-60.5 3.7-2.2 2.2-7.1-1.1-7.1-.7-.1-1.4.1-2.1.5"/></defs><clipPath id="SVGID_17_"><use xlink:href="#SVGID_16_" overflow="visible"/></clipPath><linearGradient id="SVGID_18_" gradientUnits="userSpaceOnUse" x1="-121.68" y1="357.963" x2="-120.68" y2="357.963" gradientTransform="scale(584.7972 -584.7972) rotate(.742 27604.836 9577.772)"><stop offset="0" stop-color="#ffee25"/><stop offset="0" stop-color="#ffed25"/><stop offset=".013" stop-color="#facc2a"/><stop offset=".025" stop-color="#f5b12f"/><stop offset=".038" stop-color="#f29e32"/><stop offset=".051" stop-color="#f19333"/><stop offset=".065" stop-color="#f08f34"/><stop offset=".141" stop-color="#e86031"/><stop offset=".219" stop-color="#e2312d"/><stop offset=".296" stop-color="#e3315d"/><stop offset=".372" stop-color="#af3660"/><stop offset=".458" stop-color="#6e3863"/><stop offset=".541" stop-color="#533863"/><stop offset=".622" stop-color="#2b3763"/><stop offset=".7" stop-color="#293389"/><stop offset=".781" stop-color="#0058a5"/><stop offset=".855" stop-color="#0072ba"/><stop offset=".931" stop-color="#009ee2"/><stop offset=".998" stop-color="#00977b"/><stop offset="1" stop-color="#00977b"/></linearGradient><path class="st5" d="M347 50.9L498.7 49l1 71.2-151.8 2z"/></g><g><defs><path id="SVGID_19_" d="M585.9 34.6c-30.8 10.2-61 22.1-90.6 35.7-2.8 1.3-3 4.9-.8 6.4 5.8 3.9 13.7 2.8 20.7 2.7l26-.3c-9.4 7.6-18.9 15.2-28.5 22.6-4 3.1.8 8.5 4.8 5.4 10.8-8.4 21.5-16.9 32.2-25.6 1-.9 2.1-1.7 3.1-2.6 13.7-.1 27.4-.2 41-2.4 5-.8 3.8-8-1.2-7.2-10.2 1.6-20.5 2-30.8 2.1 1.1-.9 2.1-1.8 3.2-2.6 3.3-2.8 10.4-6.8 11.6-11 .5-1.6.3-3.4-1.2-4.2-.2-.1-.4-.2-.5-.3-1.3-.8-3.4-.8-4.7.4-.1.1-.3.2-.4.4-.8.7-1.2 1.6-1.3 2.4l-.1.1c-1.3 1.1-2.7 2.3-4 3.4-2.4 2-4.8 4.1-7.3 6.1-2.2 1.8-4.4 3.6-6.7 5.5h-4.3l-23.7.3c-4.1.1-8.2.1-12.4.2h-1.1c25.6-11.4 51.7-21.5 78.2-30.3 4.3-1.4 3.8-7.4.2-7.4-.5 0-.9.1-1.4.2"/></defs><clipPath id="SVGID_20_"><use xlink:href="#SVGID_19_" overflow="visible"/></clipPath><linearGradient id="SVGID_21_" gradientUnits="userSpaceOnUse" x1="-121.68" y1="357.962" x2="-120.68" y2="357.962" gradientTransform="scale(584.7972 -584.7972) rotate(.742 27603.255 9577.761)"><stop offset="0" stop-color="#ffee25"/><stop offset="0" stop-color="#ffed25"/><stop offset=".013" stop-color="#facc2a"/><stop offset=".025" stop-color="#f5b12f"/><stop offset=".038" stop-color="#f29e32"/><stop offset=".051" stop-color="#f19333"/><stop offset=".065" stop-color="#f08f34"/><stop offset=".141" stop-color="#e86031"/><stop offset=".219" stop-color="#e2312d"/><stop offset=".296" stop-color="#e3315d"/><stop offset=".372" stop-color="#af3660"/><stop offset=".458" stop-color="#6e3863"/><stop offset=".541" stop-color="#533863"/><stop offset=".622" stop-color="#2b3763"/><stop offset=".7" stop-color="#293389"/><stop offset=".781" stop-color="#0058a5"/><stop offset=".855" stop-color="#0072ba"/><stop offset=".931" stop-color="#009ee2"/><stop offset=".998" stop-color="#00977b"/><stop offset="1" stop-color="#00977b"/></linearGradient><path class="st6" d="M491.4 34.4L598.7 33l1 77.2-107.3 1.4z"/></g><g><defs><path id="SVGID_22_" d="M100.7 21.5C69.3 44.7 36.5 65.7 2.3 84.3c-4.5 2.4-1.4 9 3.1 6.5C37.9 73 69.3 53.2 99.3 31.4c-.4 3.6-1.3 7.3-.5 10.8 1 4.6 4.5 7.8 9 9.1 8.9 2.6 20 .2 29.6-3.3-2.1 6.3-3.3 12.8-1.5 18.9 2.2 7.2 7.8 12.5 15.9 13 4.9.3 5.8-7.1.9-7.4-15.4-1-8.8-21.2-5.2-30 1.3-3.2-2-5.8-5.1-4.4-8.8 4.1-20.6 8.1-30.1 6.5-10.2-1.8-3.9-14.2-5.3-21.2-.4-1.8-1.8-2.8-3.5-2.8-1 0-2 .3-2.8.9"/></defs><clipPath id="SVGID_23_"><use xlink:href="#SVGID_22_" overflow="visible"/></clipPath><linearGradient id="SVGID_24_" gradientUnits="userSpaceOnUse" x1="-121.68" y1="357.962" x2="-120.68" y2="357.962" gradientTransform="scale(584.7972 -584.7972) rotate(.742 27600.392 9577.743)"><stop offset="0" stop-color="#ffee25"/><stop offset="0" stop-color="#ffed25"/><stop offset=".013" stop-color="#facc2a"/><stop offset=".025" stop-color="#f5b12f"/><stop offset=".038" stop-color="#f29e32"/><stop offset=".051" stop-color="#f19333"/><stop offset=".065" stop-color="#f08f34"/><stop offset=".141" stop-color="#e86031"/><stop offset=".219" stop-color="#e2312d"/><stop offset=".296" stop-color="#e3315d"/><stop offset=".372" stop-color="#af3660"/><stop offset=".458" stop-color="#6e3863"/><stop offset=".541" stop-color="#533863"/><stop offset=".622" stop-color="#2b3763"/><stop offset=".7" stop-color="#293389"/><stop offset=".781" stop-color="#0058a5"/><stop offset=".855" stop-color="#0072ba"/><stop offset=".931" stop-color="#009ee2"/><stop offset=".998" stop-color="#00977b"/><stop offset="1" stop-color="#00977b"/></linearGradient><path class="st7" d="M-3.1 20.6l160.6-2.1 1 74.8-160.7 2.1z"/></g></svg>